<svg width="15" height="15" viewBox="0 0 15 15" fill="none" xmlns="http://www.w3.org/2000/svg">
<rect x="0.5" y="0.5" width="14" height="14" rx="2.5" stroke="#2D8CC2"/>
<path d="M0.696437 9.16071C1.29474 9.30463 3.05369 9.33925 5.35715 8.57143C8.57144 7.5 9.64286 7.5 10.1786 7.5C10.7143 7.5 12.8572 9.64286 13.9286 9.64286V11.7857L12.8572 13.9286L1.60715 13.3929C2.14286 13.3929 0.535721 12.3214 0.535721 11.7857V9.10714L0.696437 9.16071Z" fill="#2D8CC2"/>
<path d="M0.535721 9.10714C0.892864 9.28571 2.78572 9.42857 5.35715 8.57143C8.57144 7.5 9.64286 7.5 10.1786 7.5C10.7143 7.5 12.8572 9.64286 13.9286 9.64286V11.7857L12.8572 13.9286L1.60715 13.3929C2.14286 13.3929 0.535721 12.3214 0.535721 11.7857C0.535721 11.3571 0.535721 9.82143 0.535721 9.10714ZM0.535721 9.10714L3.75001 10.1786" stroke="#2D8CC2"/>
<circle cx="3.75" cy="3.75" r="1.60714" fill="#2D8CC2"/>
</svg>
