<svg width="15" height="15" viewBox="0 0 15 15" fill="none" xmlns="http://www.w3.org/2000/svg">
<circle cx="7.5" cy="7.5" r="7" fill="#D9D9D9" stroke="#2D8CC2"/>
<path d="M3.2826 9.60945L7.88843 4.60682C8.56178 3.87547 9.7005 3.82845 10.4319 4.50179L11.7561 5.72098L7.15024 10.7236C6.4769 11.455 5.33818 11.502 4.60683 10.8286L3.2826 9.60945Z" fill="#D9D9D9"/>
<path d="M3.2826 9.60945L7.88843 4.60682C8.56178 3.87547 9.7005 3.82845 10.4319 4.50179L11.7561 5.72098L7.15024 10.7236C6.4769 11.455 5.33818 11.502 4.60683 10.8286L3.2826 9.60945Z" stroke="#2D8CC2" stroke-width="0.4"/>
<path d="M3.2826 9.60945L7.88843 4.60682C8.56178 3.87547 9.7005 3.82845 10.4319 4.50179L11.7561 5.72098L7.15024 10.7236C6.4769 11.455 5.33818 11.502 4.60683 10.8286L3.2826 9.60945Z" stroke="#2D8CC2" stroke-width="0.4"/>
<path d="M3.2826 9.60945L6.10019 6.54912L8.74864 8.98751L7.15024 10.7236C6.4769 11.455 5.33818 11.502 4.60683 10.8286L3.2826 9.60945Z" fill="#2D8CC2" stroke="#2D8CC2" stroke-width="0.4"/>
</svg>
