<svg width="26" height="26" viewBox="0 0 26 26" fill="none" xmlns="http://www.w3.org/2000/svg">
<path d="M7.5959 5.79473L8.00759 6.12715L8.49825 5.92906L11.2198 4.83028L11.6931 4.63917L11.772 4.13482L12.0612 2.28612H14.247L14.3386 4.04259L14.3678 4.60411L14.8853 4.82403L17.4708 5.92281L17.9873 6.1423L18.4117 5.77514L19.7103 4.65164L21.479 6.27459L20.535 7.40061L20.2073 7.79161L20.3744 8.27367L21.327 11.0206L21.5129 11.5569L22.077 11.6202L23.7267 11.8052V14.1354L22.26 14.2225L21.6878 14.2564L21.4767 14.7893L20.3881 17.5363L20.1985 18.0146L20.5146 18.4207L21.5254 19.7193L19.8389 21.4216L18.7085 20.3683L18.2969 19.9849L17.772 20.1868L14.9143 21.2856L14.3707 21.4946L14.3387 22.0762L14.2494 23.6979H11.7829V22.4003V21.8464L11.2884 21.5968L8.5668 20.2234L7.98256 19.9285L7.52197 20.3934L6.49865 21.4263L4.7484 19.8203L5.61127 18.6881L5.92826 18.2721L5.72387 17.7908L4.49917 14.9065L4.29518 14.4261L3.77688 14.3645L2.25744 14.1841V11.8514L3.85722 11.7617L4.44203 11.7289L4.64886 11.1809L5.73747 8.29661L5.93193 7.78139L5.5617 7.37373L4.62498 6.34232L6.20296 4.66997L7.5959 5.79473ZM10.1045 14.7013L10.0846 14.641L10.0564 14.584C9.94733 14.3638 9.78806 13.904 9.74202 13.3501C9.69648 12.8023 9.76592 12.22 10.044 11.6988C10.324 11.1739 10.8061 10.7407 11.3492 10.4084C11.8373 10.1098 12.3219 9.9252 12.6293 9.84024H13.0601H13.1296L13.1982 9.82958C13.8137 9.73401 14.2007 9.88833 14.5648 10.1333C14.7536 10.2603 14.9267 10.4056 15.1381 10.583C15.1581 10.5998 15.1786 10.617 15.1994 10.6344C15.4216 10.8206 15.6977 11.0492 16.0124 11.2307C16.0903 11.2756 16.2539 11.4576 16.3343 12.1068C16.3927 12.578 16.3875 13.0953 16.3819 13.6483C16.3802 13.8155 16.3785 13.986 16.3785 14.1594C16.3785 14.2515 16.3365 14.4294 16.1517 14.6828C15.9708 14.9308 15.6876 15.2015 15.3099 15.458C14.5516 15.9732 13.5168 16.3609 12.4654 16.4199C11.7704 16.4588 11.2515 16.1995 10.8594 15.8389C10.4486 15.461 10.1989 14.9869 10.1045 14.7013ZM16.6728 7.62734C15.6062 6.83458 13.016 5.81152 10.0968 7.16198C7.06437 8.5648 6.48378 11.4607 6.58104 12.8218C6.58457 13.4221 6.67687 14.3362 6.94492 15.2368C7.21055 16.1293 7.69826 17.176 8.61142 17.7904C9.49902 18.3877 10.6346 18.9425 11.7447 19.2786C12.8069 19.6002 14.0498 19.7849 15.03 19.3891C15.8622 19.0531 16.8819 18.312 17.7205 17.4471C18.5462 16.5956 19.3504 15.4667 19.529 14.2951C19.6991 13.1792 19.4027 11.7475 18.9114 10.5421C18.6599 9.92484 18.341 9.32568 17.967 8.81798C17.6191 8.3457 17.1875 7.90368 16.6728 7.62734Z" stroke="#2D8CC2" stroke-width="1.8"/>
</svg>
