<svg width="28" height="28" viewBox="0 0 28 28" fill="none" xmlns="http://www.w3.org/2000/svg">
<path d="M18.8228 4.17164L20.4557 2.66081C22.4152 3.42996 24.5381 6.27764 25.3545 7.60533L23.7216 9.39085L24.1298 10.4896L26.5792 10.627C27.3413 13.0443 26.8968 16.2124 26.5792 17.4944H24.1298L23.7216 18.8678L25.3545 20.516C23.9393 23.263 21.499 25.0485 20.4558 25.5979L18.6867 23.8124L17.462 24.2244V26.6967C14.5228 27.246 11.7014 26.9256 10.6582 26.6967V24.3617L9.2974 23.8124L7.52838 25.5979C5.13341 24.2793 3.35534 21.6606 2.76567 20.516L4.53468 18.8678L3.99038 17.6317L1.54097 17.4944C0.561217 15.4067 1.13274 11.9547 1.54097 10.4896H3.99037L4.3986 9.39085L2.76567 7.60533C3.41884 5.84728 6.21297 3.57647 7.52838 2.66081L9.29739 4.30899L10.6582 3.89694V1.42469C12.7265 0.655539 16.0559 1.10421 17.462 1.42469V3.89694L18.8228 4.17164Z" stroke="#2D8CC2" stroke-width="1.8"/>
</svg>
